# xmcd
#
# Track frame offsets:
#	150
#	11084
#	23226
#	36232
#	53478
#	66764
#	86273
#	107071
#	123573
#	136457
#	148030
#	159061
#	173164
#	187900
#	202361
#	219842
#	237662
#	250164
#	268143
#	279352
#
# Disc length: 3889 seconds
#
# Revision: 2
# Processed by: cddbd v1.4PL0 Copyright (c) Steve Scherf et al.
# Submitted via: MusicWizard 6.0.0
#
DISCID=1e0f2f14
DTITLE=Johnny Cash - Ballads Of The True West
DYEAR=1900
DGENRE=Country
TTITLE0=Hiawatha's Vision
TTITLE1=The Road To Kaintuck
TTITLE2=The Shifting, Whispering Sands, Part I
TTITLE3=The Ballad Of Boot Hill
TTITLE4=I Ride An Old Paint
TTITLE5=Hardin Wouldn't Run
TTITLE6=Mister Garfield
TTITLE7=The Streets of Laredo
TTITLE8=Johnny Reb
TTITLE9=A Letter From Home
TTITLE10=Bury Me Not On The Lone Prairie
TTITLE11=Mean As Hell
TTITLE12=Sam Hall
TTITLE13=25 Minutes To Go
TTITLE14=The Blizzard
TTITLE15=Sweet Betsy From Pike
TTITLE16=Green Grow The Lilacs
TTITLE17=Stampede
TTITLE18=The Shifting, Whispering Sands, Part II
TTITLE19=Reflections
EXTD=(c) 1971 CBS
EXTT0=
EXTT1=
EXTT2=
EXTT3=
EXTT4=
EXTT5=
EXTT6=
EXTT7=
EXTT8=
EXTT9=
EXTT10=
EXTT11=
EXTT12=
EXTT13=
EXTT14=
EXTT15=
EXTT16=
EXTT17=
EXTT18=
EXTT19=
PLAYORDER=
